<?xml version="1.0" encoding="UTF-8"?>
<svg width="40px" height="40px" viewBox="0 0 40 40" version="1.1" xmlns="http://www.w3.org/2000/svg" xmlns:xlink="http://www.w3.org/1999/xlink" style="background: #CC0000;">
    <!-- Generator: Sketch 41.2 (35397) - http://www.bohemiancoding.com/sketch -->
    <title>Custom Presetlogo</title>
    <desc>Created with Sketch.</desc>
    <defs></defs>
    <g id="Page-1" stroke="none" stroke-width="1" fill="none" fill-rule="evenodd">
        <g id="Custom-Preset" fill="#FFFFFF">
            <g id="miner" transform="translate(9.000000, 5.000000)">
                <path d="M13.1747059,6.37061765 C13.1664706,6.45044853 13.1564706,6.52971324 13.1564706,6.61067647 C13.1564706,8.49944118 14.6788235,10.0286838 16.5570588,10.0286838 C18.4341176,10.0286838 19.9558824,8.498875 19.9558824,6.61067647 C19.9558824,6.52914706 19.9435294,6.44988235 19.9388235,6.37061765 L13.1747059,6.37061765 L13.1747059,6.37061765 Z" id="Shape"></path>
                <g id="Group" transform="translate(10.705882, 0.000000)">
                    <path d="M4.39470588,3.30194118 C4.48823529,2.59761765 5.10705882,2.05069118 5.86411765,2.05069118 C6.62176471,2.05069118 7.24058824,2.59761765 7.33529412,3.30194118 L9.77764706,3.30194118 C9.07058824,1.54905882 7.58235294,0.340272059 5.86235294,0.340272059 C4.15294118,0.340272059 2.66588235,1.55528676 1.94941176,3.30194118 L4.39470588,3.30194118 Z" id="Shape"></path>
                    <path d="M10.1817647,4.918375 C10.1452941,4.57640441 10.0794118,4.24575735 9.99176471,3.92756618 L7.27470588,3.92756618 C7.07941176,4.50110294 6.52705882,4.918375 5.86470588,4.918375 C5.20352941,4.918375 4.65058824,4.50110294 4.45588235,3.92756618 L1.73058824,3.92756618 C1.64058824,4.24575735 1.57235294,4.57640441 1.53352941,4.918375 L0.414705882,4.918375 L0.414705882,5.73197059 L11.3,5.73197059 L11.3,4.918375 L10.1817647,4.918375 Z" id="Shape"></path>
                </g>
                <g id="Group" transform="translate(0.000000, 10.529412)">
                    <path d="M20.8305882,0.347970588 L19.6341176,0.347404412 L19.6341176,8.69454412 L18.6588235,8.69454412 L18.6588235,0.347404412 L14.6888235,0.345139706 L14.6888235,8.69454412 L13.7135294,8.69454412 L13.7135294,0.345139706 L12.3252941,0.344573529 C9.63882353,0.344573529 7.65294118,2.45358088 7.65294118,5.08290441 L7.65294118,10.4496912 L4.63647059,10.4496912 L3.40823529,10.4496912 L1.80647059,10.4496912 C-0.379411765,10.4496912 -0.379411765,13.3292647 1.80647059,13.3292647 L3.46705882,13.3292647 L4.57588235,13.3292647 L9.13882353,13.3292647 C9.89,13.3253015 10.6441176,12.7800735 10.6441176,11.6867868 L10.6441176,5.38241176 L11.5970588,5.38241176 L11.5958824,11.8215368 L13.7135294,11.8215368 L13.7135294,9.55456618 L14.6888235,9.55456618 L14.6888235,11.8215368 L18.6588235,11.8215368 L18.6588235,9.55456618 L19.6341176,9.55456618 L19.6341176,11.8215368 L21.7435294,11.8215368 L21.7452941,5.38241176 L22.6794118,5.38241176 L22.6794118,14.9768382 C22.6794118,17.1730368 25.6541176,17.1730368 25.6476471,14.9768382 L25.6476471,5.14914706 C25.6470588,2.72591176 23.7805882,0.347970588 20.8305882,0.347970588 Z" id="Shape"></path>
                    <rect id="Rectangle-path" x="11.5958824" y="13.6984118" width="10.1470588" height="2.91184559"></rect>
                </g>
            </g>
            <g id="Group" transform="translate(11.133854, 28.767707) rotate(-20.000000) translate(-11.133854, -28.767707) translate(6.633854, 24.267707)">
                <path d="M8.25965025,1.72035319 C8.40627126,1.54031623 8.49424387,1.310269 8.49424387,1.05021561 C8.49424387,0.480098564 8.0446061,0.0100020534 7.47767153,0.0100020534 C7.23330318,0.0100020534 6.99870956,0.100020534 6.82276435,0.250051335 L6.82276435,0.250051335 L8.25965025,1.72035319 Z" id="Shape"></path>
                <path d="M1.8962984,8.12166738 L0.576709307,6.77139017 L0.0977473402,8.50174541 C0.0879726062,8.53175157 0.0977473402,8.55175567 0.107522074,8.56175773 C0.117296808,8.57175978 0.136846276,8.58176183 0.166170478,8.57175978 L1.8962984,8.12166738 Z" id="Shape"></path>
                <path d="M3.99786622,6.13125875 C4.05651462,6.19127107 4.10538829,6.27128749 4.13471249,6.36130598 L7.02803376,3.40069816 C6.93028642,3.38069406 6.84231382,3.33068379 6.77389068,3.26066941 L5.29790584,1.77036346 C5.24903217,1.72035319 5.20993323,1.65033881 5.18060903,1.59032649 L2.3263867,4.52092815 C2.4143593,4.55093431 2.48278244,4.59094252 2.55120558,4.66095689 L3.99786622,6.13125875 Z" id="Shape"></path>
                <path d="M2.33616143,4.87100002 C2.28728776,4.82098975 2.21886462,4.79098359 2.16021622,4.79098359 C2.09179308,4.79098359 2.03314468,4.82098975 1.98427101,4.87100002 L0.733105052,6.1412608 C0.635357712,6.24128133 0.635357712,6.40131419 0.733105052,6.51133678 L2.17976569,7.99164068 C2.27751303,8.09166122 2.43390877,8.09166122 2.54143085,7.99164068 L3.78282207,6.7213799 C3.88056941,6.62135936 3.88056941,6.46132651 3.78282207,6.35130392 L2.33616143,4.87100002 Z" id="Shape"></path>
                <path d="M7.59496834,3.14064477 C7.6145178,3.16064888 7.62429254,3.18065299 7.64384201,3.19065504 C7.65361674,3.20065709 7.66339147,3.21065915 7.66339147,3.2206612 C7.9859577,3.92080494 6.03101089,5.46112117 5.81596674,5.63115608 L6.24605504,6.00123205 C6.578396,5.8411992 7.08668217,5.54113759 7.60474307,5.03103287 C8.12280397,4.51092609 8.61154068,4.03082753 8.54311754,3.43070432 C8.51379333,3.14064477 8.36717232,2.85058522 8.20100185,2.61053594 C8.19122711,2.59053184 8.17167764,2.57052773 8.16190291,2.55052362 L7.59496834,3.14064477 Z" id="Shape"></path>
                <path d="M6.96938536,3.05062629 C7.04758323,3.13064272 7.18442951,3.13064272 7.26262738,3.05062629 L8.03483137,2.26046407 C8.11302924,2.18044765 8.11302924,2.0404189 8.03483137,1.96040247 L6.578396,0.470096511 C6.53929706,0.430088297 6.49042339,0.41008419 6.43177499,0.41008419 C6.37312658,0.41008419 6.32425291,0.430088297 6.28515398,0.470096511 L5.51294999,1.26025873 C5.43475212,1.34027516 5.43475212,1.48030391 5.51294999,1.56032033 L6.96938536,3.05062629 Z" id="Shape"></path>
            </g>
        </g>
    </g>
</svg>