<?xml version="1.0" encoding="utf-8"?>
<!-- Generator: Adobe Illustrator 19.2.0, SVG Export Plug-In . SVG Version: 6.00 Build 0)  -->
<svg version="1.1" id="Laag_1" xmlns="http://www.w3.org/2000/svg" xmlns:xlink="http://www.w3.org/1999/xlink" x="0px" y="0px"
	 viewBox="0 0 40 40" style="enable-background:new 0 0 40 40;" xml:space="preserve">
<style type="text/css">
	.st0{fill:#FFFFFF;}
	.st1{fill:#CC0000;}
</style>
<rect class="st0" width="40" height="40"/>
<title>logo</title>
<desc>Created with Sketch.</desc>
<g id="Page-1_1_">
	<g id="logo">
		<g id="Page-1">
			<g id="Group" transform="translate(20.000000, 20.000000) scale(1, -1) translate(-20.000000, -20.000000) ">
				<path id="Shape" class="st1" d="M0,20V0h20h20v20v20H20H0V20z M12.6,32.8c0-0.1,0-0.9,0-1.7c0-1.7,0-1.5,0.6-3.5
					c0.1-0.3,0.5-1.6,0.7-2.4c0.1-0.2,0.2-0.6,0.3-0.9c0.2-0.6,0.2-0.7,0-0.8C14,23.4,14,23.3,14,21.3c0-1.1,0-2.1,0-2.1
					c0.1-0.1,0.7-0.1,0.9,0c0,0,0.3,0.3,0.5,0.7c0.5,0.8,0.6,0.9,0.6,1.1c0,0.1,0.2,0.4,0.5,0.7s0.7,1.1,1.1,1.8
					c0.4,0.6,0.8,1.2,0.8,1.4c0.1,0.1,0.2,0.3,0.2,0.3s0.2,0.4,0.5,0.8c0.4,0.6,0.4,0.7,0.4,1.2c0,0.5,0,0.5-0.2,0.5
					c-0.2,0-0.3,0.3-0.2,0.4c0,0,0.1,0.1,0.2,0.1c0.1,0,0.2,0.1,0.2,0.2c0.1,0.3,0.3,0.4,0.4,0.2c0.1-0.1,0.1-0.2,0.1-0.3
					c0-0.1,0.1-0.2,0.2-0.2c0.3,0,0.3-0.4,0-0.5c-0.1,0-0.2-0.1-0.2-0.4c0-0.4,0.1-0.8,0.8-1.7c0.2-0.2,0.3-0.5,0.3-0.5
					c0-0.1,0.1-0.2,0.2-0.3c0.1-0.1,0.6-1,1.2-1.9c0.6-1,1.1-1.8,1.2-1.9c0.1-0.1,0.2-0.3,0.2-0.4s0.2-0.3,0.3-0.5s0.2-0.3,0.2-0.4
					c0-0.1,0.4-0.4,0.5-0.4c0.1,0,0.1,0.2,0.2,2.1l0,2.1L25,23.5c-0.2,0.2-0.2,0.3,0.1,1c0.1,0.2,0.2,0.8,0.4,1.3
					c0.6,2.1,0.8,2.8,0.9,3c0.1,0.1,0.1,0.9,0.1,2.1c0,1.7,0.1,1.9,0.2,1.9c0.1,0,0.2,0,0.2-0.1s0-0.8,0-1.7c0-1.8,0-1.7,0.6-3.8
					c0.2-0.6,0.3-1,0.5-1.5c0.1-0.2,0.2-0.6,0.2-0.8c0.2-0.7,0.3-1.1,0.4-1.3c0-0.1,0-0.2-0.2-0.3l-0.2-0.1v-3.7V16H29
					c0.4,0,0.9,0,1,0l0.2,0v-4.3V7.3L30,7.2C29.9,7,29.4,7,25.7,7c-3.6,0-4.2,0-4.3,0.1c-0.2,0.1-0.2,0.1-0.2,2.7v2.6l-0.3,0.4
					c-0.3,0.4-0.9,1-1.1,1c-0.1,0-1-0.8-1.2-1.1c-0.2-0.2-0.2-0.4-0.2-2.8c0-2.2,0-2.6-0.1-2.7L18.2,7h-4.1c-3.3,0-4.1,0-4.2,0.1
					c-0.1,0.1-0.1,0.4-0.1,4.4v4.3l0.3,0c0.1,0,0.4,0.1,0.6,0.1l0.3,0l0,3.6c0,2,0,3.6,0,3.7c0,0.1-0.1,0.2-0.2,0.2
					c-0.1,0-0.1,0-0.2,0.1c0,0.1,0.3,1.3,0.4,1.7c0,0.1,0.1,0.2,0.1,0.4c0,0.1,0.1,0.5,0.2,0.8c0.1,0.3,0.2,0.8,0.3,1.1
					s0.2,0.7,0.3,1.1c0.2,0.6,0.2,0.7,0.2,2.3c0,0.9,0,1.8,0,1.9c0,0.1,0.1,0.2,0.2,0.2C12.5,33,12.6,32.9,12.6,32.8z"/>
				<path id="Shape_1_" class="st1" d="M16.4,19.1c-0.5-0.5-0.5-0.5-0.5-2.1l0-1.5l0.7,0c0.4,0,0.7,0,0.8,0c0.1,0,0.1,0.4,0.1,1.6
					v1.6L17.2,19c-0.2,0.2-0.4,0.3-0.4,0.3C16.6,19.3,16.5,19.2,16.4,19.1z"/>
				<path id="Shape_2_" class="st1" d="M22.5,19l-0.3-0.3V17c0-0.9,0-1.6,0.1-1.6c0.9,0,1.4,0,1.5,0.1c0,0.1,0.1,0.8,0,1.6l0,1.5
					l-0.4,0.4c-0.2,0.2-0.4,0.4-0.5,0.4C22.8,19.3,22.6,19.1,22.5,19z"/>
				<path id="Shape_3_" class="st1" d="M15.3,13.2L15.1,13l0-2l0-2l0.8,0l0.8,0V11c0,2.4,0,2.3-0.8,2.4
					C15.6,13.4,15.5,13.3,15.3,13.2z"/>
				<path id="Shape_4_" class="st1" d="M23.3,13.3c-0.1,0-0.2-0.1-0.2-0.2c-0.1-0.1-0.1-0.4-0.1-2.2l0-2h0.8h0.8l0,2v2l-0.2,0.2
					c-0.2,0.1-0.3,0.2-0.6,0.2C23.6,13.3,23.3,13.3,23.3,13.3z"/>
			</g>
		</g>
	</g>
</g>
</svg>
